<svg xmlns="http://www.w3.org/2000/svg">
    <symbol viewBox="0 0 14 14" id="face">
        <path d="M8 1c-1.57 0-2.746.332-3.578.96-.836.626-1.29 1.536-1.461 2.528-.125.703-.086 1.469-.016 2.242C2.422 6.965 2 7.395 2 8c0 .41.137.828.363 1.21.227.384.575.79 1.137.79.133 0 .227-.023.328-.04.352 1.083.871 2.075 1.563 2.77C6.164 13.504 7.074 14 8 14c.926 0 1.836-.5 2.61-1.273.695-.692 1.206-1.684 1.562-2.766.101.016.195.039.328.039.563 0 .91-.406 1.137-.79.226-.382.363-.8.363-1.21 0-.621-.438-1.063-.98-1.29.07-.952.058-1.855-.27-2.6-.344-.774-1-1.356-1.875-1.712a1.687 1.687 0 00-.832-.976C9.508 1.145 8.813 1 8 1zm0 1c.688 0 1.242.137 1.582.313.34.171.418.335.418.437 0 0 .004.078-.063.273a1.932 1.932 0 01-.476.75C8.89 4.34 7.668 5 5 5v1c2.832 0 4.36-.715 5.168-1.523.363-.364.559-.735.676-1.04.476.258.785.614.988 1.079.27.605.344 1.437.23 2.437L12 7.477l.531.035c.27.015.469.218.469.488 0 .14-.086.473-.223.703-.136.23-.289.297-.277.297.031 0-.145-.016-.266-.04-.12-.023-.23-.042-.23-.042l-.434-.09-.14.422s-.02.05-.04.121c-.285 1.078-.847 2.008-1.488 2.649-.64.64-1.355.98-1.902.98-.547 0-1.262-.336-1.906-.98-.64-.641-1.2-1.567-1.485-2.645v-.004c-.023-.082-.043-.129-.043-.129l-.144-.414-.43.09-.226.043C3.645 8.984 3.469 9 3.5 9c.012 0-.14-.066-.277-.297C3.086 8.473 3 8.141 3 8c0-.27.2-.469.469-.488l.523-.035-.054-.524c-.098-.84-.11-1.625.007-2.289.145-.82.47-1.45 1.078-1.906C5.63 2.3 6.57 2 8 2zM6.5 7c-.277 0-.5.223-.5.5s.223.5.5.5.5-.223.5-.5-.223-.5-.5-.5zm3 0c-.277 0-.5.223-.5.5s.223.5.5.5.5-.223.5-.5-.223-.5-.5-.5z"/>
    </symbol>
    <symbol viewBox="0 0 13.957334 13.957333" id="close">
        <path d="M2.75 2.043l-.707.707.355.352L7.293 8l-5.25 5.25.707.707L8 8.707l4.895 4.898.355.352.707-.707-.352-.355L8.707 8l5.25-5.25-.707-.707L8 7.293 3.102 2.398z"/>
    </symbol>
    <symbol viewBox="0 0 14 14"  id="menu">
        <path d="M1 2v1h13V2zm0 5v1h13V7zm0 5v1h13v-1z"/>
    </symbol>
    <symbol viewBox="0 0 15 14" id="work">
        <path d="M6.5 1C5.676 1 5 1.676 5 2.5V3H2.5C1.676 3 1 3.676 1 4.5v8c0 .824.676 1.5 1.5 1.5h11c.824 0 1.5-.676 1.5-1.5v-8c0-.824-.676-1.5-1.5-1.5H11v-.5c0-.824-.676-1.5-1.5-1.5zm0 1h3c.281 0 .5.219.5.5V3H6v-.5c0-.281.219-.5.5-.5zm-4 2h11c.281 0 .5.219.5.5V9H2V4.5c0-.281.219-.5.5-.5zM7 7v1h2V7zm-5 3h12v2.5c0 .281-.219.5-.5.5h-11a.494.494 0 01-.5-.5z"/>
    </symbol>
</svg>